<?xml version="1.0" encoding="utf-8"?>
<!-- Generator: Adobe Illustrator 16.0.0, SVG Export Plug-In . SVG Version: 6.00 Build 0)  -->
<!DOCTYPE svg PUBLIC "-//W3C//DTD SVG 1.1//EN" "http://www.w3.org/Graphics/SVG/1.1/DTD/svg11.dtd">
<svg version="1.1" id="Layer_1" xmlns="http://www.w3.org/2000/svg" xmlns:xlink="http://www.w3.org/1999/xlink" x="0px" y="0px"
	 width="105px" height="31px" viewBox="0 0 105 31" enable-background="new 0 0 105 31"
	 xml:space="preserve">
<g>
	<polygon points="0,30.824 6.14,30.824 6.14,21.359 6.14,20.003 6.14,14.832 6.14,13.477 6.14,6.952 6.14,5.97 6.14,0.742 0,0.742
		"/>
	<path d="M19.702,3.057c-1.74-1.555-4.071-2.329-7.003-2.329H7.994v5.224h3.719c1.405,0,2.503,0.337,3.286,1.002
		c0.784,0.666,1.177,1.784,1.177,3.348c0,1.565-0.393,2.708-1.177,3.431c-0.782,0.721-1.88,1.083-3.286,1.083H7.994V20h4.308
		c3.213,0,5.681-0.733,7.415-2.207c1.731-1.467,2.596-3.979,2.596-7.53C22.312,7.011,21.441,4.607,19.702,3.057z"/>
	<path d="M66.07,0.049v5.394c1.727,0.165,3.062,0.792,3.998,1.904c0.615,0.738,1.117,1.829,1.513,3.274h6.18
		c-0.097-1.88-0.766-3.755-2.026-5.626C73.64,1.938,70.423,0.293,66.07,0.049z"/>
	<path d="M51.737,15.896c0,4.865,1.202,8.694,3.615,11.49c2.198,2.546,5.156,3.916,8.862,4.139v-5.488
		c-1.636-0.224-3.022-1.034-4.146-2.439c-1.34-1.686-2.011-4.218-2.011-7.601c0-3.377,0.636-5.991,1.905-7.838
		c1.082-1.569,2.499-2.455,4.252-2.691V0.031c-3.352,0.156-6.147,1.384-8.368,3.697C53.104,6.578,51.737,10.639,51.737,15.896z"/>
	<path d="M70.028,23.953c-0.947,1.229-2.262,1.922-3.952,2.104v5.47c3.044-0.161,5.565-1.169,7.565-3.055
		c2.178-2.062,3.527-4.733,4.057-8.017h-6.141C71.154,22.01,70.643,23.177,70.028,23.953z"/>
	<polygon points="83.158,30.824 89.198,30.824 89.198,25.416 89.198,24.374 89.198,18.993 89.198,17.684 89.198,12.462
		89.198,11.812 89.198,6.364 89.198,6.072 89.198,0.745 83.158,0.745 	"/>
	<rect x="91.05" y="25.416" width="14.521" height="5.407"/>
	<rect x="91.05" y="0.728" width="13.8" height="5.332"/>
	<rect x="91.052" y="12.45" width="12.516" height="5.228"/>
	<polygon points="33.247,0.728 39.521,19.452 33.811,19.452 32.13,24.639 41.158,24.639 43.108,30.826 49.81,30.826 39.343,0.728
		"/>
	<polygon points="31.851,2.159 21.796,30.826 28.259,30.826 34.752,10.798 	"/>
</g>
<g>
</g>
<g>
</g>
<g>
</g>
<g>
</g>
<g>
</g>
<g>
</g>
</svg>
